<svg id="Layer_1" data-name="Layer 1" xmlns="http://www.w3.org/2000/svg" viewBox="0 0 263.2 124"><path d="M808.33,546.8h57.6a16,16,0,0,1,0,31h-34.8V556h-22.8v91.6h13.4s10.4-.1,10.4-10.1V599.7h16.8l27.87,39.9s6,8,16.2,8c12.85,0,17.67-7.47,17.67-7.47l25.46-37.86,25.6,37.06A23.2,23.2,0,0,0,980,647.6h53a44.31,44.31,0,0,0,13.66-1.9c5.56-1.9,18.5-8.39,18.5-27.57v-10s-1.87-14.66-15.73-22.53c-11.13-6.31-37.27-15.71-47.17-19.18a9.48,9.48,0,0,1-6.47-9.55,10.86,10.86,0,0,1,3.72-7.07,14.26,14.26,0,0,1,9.85-3.8h51.8V523.6h-56.53s-18.77.86-27.74,18.22a35.17,35.17,0,0,0-1.16,28.71c2.14,5.6,5.59,11.52,11,14.27l51.2,21.33c3.39,1.8,4.94,5.43,4.94,9.15s-2.89,6.67-6.45,7.74a8.67,8.67,0,0,1-2.43.31H978.8l-28.27-39.6,20.8-28.93s1.74-25.07,25.87-31.2H972.13a32.78,32.78,0,0,0-18.8,16.93l-16.56,24.54L916,534.8s-7.6-11.2-15.87-11.2h-24.4s23.07,6,27.07,31.87l20,28-28,40-20.27-26.54s26-6,26-30.53V555.2s-3.33-26.67-32.4-31.6H802c1.62,1,6.13,2.37,6.27,6.62S808.83,545.72,808.33,546.8Z" transform="translate(-802 -523.6)"/></svg>